PathFileType	4	(X/Y/Z)	Walk1_0-155.trc
DataRate	CameraRate	NumFrames	NumMarkers	Units	OrigDataRate	OrigDataStartFrame	OrigNumFrames
30	30	9	22	m	30	38	155
Frame#	Time	Hip			RHip			RKnee			RAnkle			RBigToe			RSmallToe			RHeel			LHip			LKnee			LAnkle			LBigToe			LSmallToe			LHeel			Neck			Head			Nose			RShoulder			RElbow			RWrist			LShoulder			LElbow			LWrist		
		X1	Y1	Z1	X2	Y2	Z2	X3	Y3	Z3	X4	Y4	Z4	X5	Y5	Z5	X6	Y6	Z6	X7	Y7	Z7	X8	Y8	Z8	X9	Y9	Z9	X10	Y10	Z10	X11	Y11	Z11	X12	Y12	Z12	X13	Y13	Z13	X14	Y14	Z14	X15	Y15	Z15	X16	Y16	Z16	X17	Y17	Z17	X18	Y18	Z18	X19	Y19	Z19	X20	Y20	Z20	X21	Y21	Z21	X22	Y22	Z22
39	1.3	-2.1068507663017244	0.84359816173371	0.36987565017437285	-2.0646778576283853	0.828325364556543	0.4706149026845246	-1.9936375573222014	0.48534288889727994	0.43540722510348395	-2.024210713497988	0.08935015904096798	0.4377708727599984	-1.8069976367226848	0.017308198050710613	0.4366627500379128	-1.8451647417215726	0.009023972521275089	0.4963870444376521	-2.058571938783462	0.01356608468753482	0.42649236719294925	-2.135087237774455	0.8199352923386103	0.27688856928594346	-2.071098587867385	0.4520896912939541	0.2769177120466984	-2.4038493868460056	0.1929329688725491	0.2777777617754954	-2.3319025991004523	-0.020738586771651135	0.2798954076830171	-2.3831211135871384	0.0010988871369952869	0.24380462362045507	-2.4741505320287382	0.16455749910754747	0.2899549104968822	-2.118007361479625	1.5246759404661232	0.3389402281857159	-2.067168124706442	1.769034938841412	0.3614593481890976	-1.970006079945951	1.6474660681843623	0.3507131849092123	-2.1403798935440426	1.4007825219920664	0.5414995071837724	-2.124757714469314	1.0951394402963817	0.6129640772168816	-2.1047923506475525	0.8428637054308445	0.6402079415065812	-2.1833989509171987	1.4204023188683443	0.13855874672485102	-2.146114179992789	1.0981202769107024	0.11722829644262955	-2.0764515665915115	0.8522639352267674	0.11646849035867231
40	1.3333333333333333	-2.0779010633575807	0.848091709008329	0.37415401225502565	-2.04330888901438	0.8302370556925255	0.47538548430576993	-1.9911632135853004	0.47829671152959846	0.4403558952028282	-2.0258540110103604	0.09044219614756749	0.4404246579213027	-1.8127836814724607	0.014315469403182051	0.4355547361675726	-1.8509813408002846	0.006436579906230524	0.4934885907128038	-2.0573655022550588	0.016077311618563645	0.4304752173081057	-2.099743863273308	0.826339300015498	0.2805536821066279	-2.0031993914361896	0.4656582903662788	0.27973199195731335	-2.3389462395285836	0.21117777278592942	0.2870608918307672	-2.277100350128781	-0.013551518576414807	0.28294554506503566	-2.3266488011528734	0.01016511519078063	0.24488835598727723	-2.4094606704669244	0.18751907236604465	0.29628840455262506	-2.091966942952919	1.53133484755232	0.34503252178033544	-2.040347130852673	1.7749866982898943	0.3667960436483539	-1.9440566724349315	1.6515016426866733	0.3546480603706055	-2.114375642743073	1.4095607143074051	0.5436377438928446	-2.0828199798563256	1.099828700583845	0.6188524223756234	-2.047673290256414	0.8484592274911755	0.6439239831836646	-2.159045095002401	1.426672225032045	0.14443760219393403	-2.125976152850204	1.1059343998540097	0.11834736617481031	-2.0562252397185814	0.8585489483991329	0.1187594532765696
41	1.3666666666666667	-2.050566559180364	0.851997966528399	0.37767483023636333	-2.025370086480002	0.8319359895301882	0.47917749808846344	-1.9913102670503045	0.47363035252145963	0.4447930323064558	-2.025193369111226	0.09289169540142281	0.4427624633551931	-1.8198590685960625	0.0114889217010416	0.4349050071947629	-1.8602698093310284	0.003485287501817144	0.49089575261703394	-2.0563892413797555	0.019494284425184655	0.43497519162844084	-2.06485382715766	0.8330567553799293	0.28286169232948666	-1.9359175802362634	0.48266771718158713	0.28216156600012593	-2.2655793468212564	0.22010445509917925	0.29695215633803895	-2.1999798871016734	-0.004427793923478067	0.2876002747336677	-2.248482345504206	0.019593969836916594	0.2467133588859301	-2.336400112568439	0.19569906442662424	0.30398151599044765	-2.0652726054854953	1.5378085360812754	0.3502753062911278	-2.0128966587839208	1.7813941174370693	0.37058993358298353	-1.9175850856201253	1.6542912438732862	0.35814419037838957	-2.0887989397188997	1.4183315673548496	0.5447385953408168	-2.041513070351792	1.1046383448208579	0.623361405428121	-1.988471157225273	0.8550534395868399	0.6467752452054307	-2.133677157155805	1.4321950220488726	0.1492819102369961	-2.1043577848703294	1.112355466169468	0.1197004218361177	-2.0358966416511652	0.8633915413153551	0.12145994556852814
42	1.4	-2.024038262678339	0.8554813481521792	0.3808575141939624	-2.0088798059350927	0.8335597762377943	0.48218811154206026	-1.9924932819394257	0.47109757299724014	0.44885982515899114	-2.0228190433156126	0.09562925899850637	0.44441963467035406	-1.8271478116956106	0.008943235901664341	0.4349876448652743	-1.8707266608226898	0.0010486120560627798	0.4895276410296096	-2.0560379901545796	0.0226335743245091	0.43927518330315374	-2.03027794652256	0.8399173479141933	0.2842704476071122	-1.872058630684872	0.5011823260978528	0.2842150664194828	-2.184423134601685	0.21913320362403615	0.3057716240471884	-2.102511533294115	0.00592437197391378	0.293087245822022	-2.1505223074824156	0.02820718611029723	0.24906340520354667	-2.255715278868829	0.1881573964128874	0.3115184538723927	-2.037885384417125	1.5435473017357486	0.3544894168558684	-1.9847388465688556	1.7876887463937774	0.37255087150613764	-1.8904961018602278	1.6561444664434075	0.36127527624813316	-2.0630347130649622	1.426104893544913	0.5454909040332938	-2.001006554854807	1.1096986843153616	0.6268635508243287	-1.928062063054385	0.8630507161866414	0.6489951105172814	-2.107144041288226	1.4363721117973118	0.1530334489337305	-2.0810739452670695	1.1169274231115078	0.12152718353853283	-2.0156197556167936	0.8665344835679721	0.12429516980103705
43	1.4333333333333331	-1.9975742715333313	0.858532762243813	0.3839611758735939	-1.992178655729922	0.8351980904739298	0.48459184471582833	-1.9931825815856041	0.46975774310930457	0.4526975589144632	-2.0200584577914618	0.09688435627961045	0.44502141728906197	-1.8335858218515624	0.006398537343143013	0.4356075458420181	-1.880579299886682	-0.0007947130599371691	0.4893311533655232	-2.056782012067606	0.023665520733591978	0.44226264979522756	-1.995894176898331	0.8467309979942717	0.2852573599543262	-1.8143224070012482	0.5185925795858481	0.2856756955775061	-2.09584435504612	0.20973361215283326	0.312068302387158	-1.989669659619062	0.01598845410941288	0.2979933142518424	-2.037141258085778	0.03481663774333394	0.251165913773569	-2.1675476392981237	0.1677950904390616	0.3174869134795588	-2.009870854415876	1.5481006848442833	0.357622131484678	-1.9563507011533512	1.793174502563801	0.3724565543312315	-1.8627254698155569	1.6573671840116317	0.36404273676967935	-2.036696984814246	1.4323071402578722	0.5460516161669209	-1.9612859686887831	1.1148098900664367	0.6296614931991147	-1.867401992586189	0.8723601765846896	0.6504532666060202	-2.0794412046073045	1.4390390268923474	0.15574210118742934	-2.0568068757379323	1.120065163691747	0.12361857156147668	-1.9950424480975315	0.8679056190516766	0.1270647408960991
44	1.4666666666666666	-1.9707728156515738	0.860784581378223	0.38703684555508194	-1.9742538123965292	0.8365545144180777	0.4865726991244064	-1.9923885869241582	0.46865963914370207	0.45601607492179175	-2.0179853454464562	0.09522782517280076	0.4442088613837688	-1.8386380539165552	0.0032698700532928556	0.4362074341513662	-1.889009825788652	-0.0029096096350310244	0.4891840295198341	-2.0592329378743446	0.021045563466399627	0.44269561540543634	-1.9618481045834473	0.8528579123175379	0.28619206475975495	-1.7646419240533715	0.5322974097343588	0.2862681885613205	-2.000388056409722	0.19470593474914297	0.31500558798243056	-1.8671462285186367	0.02507238292689483	0.3006954589366782	-1.91344474657015	0.039516181689007064	0.25180233799018076	-2.0717612066631452	0.13973141835198943	0.32118699000758993	-1.9812314437228065	1.551181149209165	0.3597806277941885	-1.9283549947308425	1.7970418524113516	0.37056901427112987	-1.8341897667077927	1.6580419430105238	0.3662975548780984	-2.0094406304613956	1.4364957789716597	0.5465060651371354	-1.9223332912179698	1.1192375937070222	0.6319127075527166	-1.8073913707288682	0.8822934137225019	0.6507070037991362	-2.0505665380469527	1.4403257764084638	0.15758320821872063	-2.032525009423658	1.1224838163905557	0.12537876328216116	-1.9736445861899978	0.8675396609913293	0.1295255305450672
45	1.5	-1.9435854676712714	0.8616112665927069	0.39002614739216296	-1.954588296641588	0.8368146414759253	0.48828696002706623	-1.9895037035907863	0.4671020636008272	0.4583877406967415	-2.01689230710222	0.09057679925417088	0.44190029540852366	-1.8421437829868383	-0.000632099190480568	0.43641298039954624	-1.8954410679362004	-0.006080646718523375	0.4879367447721043	-2.0643254903153885	0.014437472854807527	0.439884342714342	-1.9284223221208208	0.8570994194207074	0.2872212831004059	-1.7237389625232855	0.5402282923975227	0.28607745383780436	-1.899190016566904	0.1776108570328353	0.3145466768894821	-1.7395339378898966	0.034342042949259105	0.3003689913539603	-1.784364064281853	0.044007961611264544	0.25002121430046714	-1.968524859155635	0.10985510902703548	0.322449081488779	-1.95184397024449	1.552590091136469	0.3611912288440718	-1.9008400136677974	1.798634979138545	0.3677588671624504	-1.8047583558138263	1.658171146445425	0.36791490629604373	-1.9808852239277628	1.4381932041336583	0.5470914516480885	-1.8841775944845804	1.1219276615801523	0.6337002474564537	-1.7488823985465092	0.8918774063667381	0.6492939267534151	-2.020412780392511	1.4403266850769416	0.15885122286238232	-2.0078969473810924	1.1239094185150158	0.1265526983934377	-1.9511413365486199	0.8656044278282451	0.13135125230045527
46	1.5333333333333334	-1.9160421300993051	0.860495484143898	0.39281843023919827	-1.9328374765454648	0.8349993830767513	0.4896990348082445	-1.9839223347782495	0.464725691493584	0.459681750638368	-2.016569962303749	0.08427027992945828	0.43860154979205074	-1.843934750917124	-0.004698689098760961	0.43619917917821094	-1.8990998457154618	-0.010144725497104863	0.48546310768453194	-2.072702775410079	0.004950504965312696	0.4343049473174282	-1.8956207242893983	0.8581676454906979	0.28820711718174363	-1.6909637754031697	0.5413600807309232	0.2858300785474871	-1.794890910354464	0.16205585170067266	0.31126412100392403	-1.6112077404357412	0.04581005569735262	0.29746584793018566	-1.655412857664703	0.05036598208328326	0.24565123717534268	-1.859634101786033	0.08367978373882033	0.32119571735827956	-1.921530369060014	1.5521126298779089	0.36207245457708503	-1.8733227180003575	1.7977220106117722	0.36504059300357233	-1.774278698733653	1.6578023000499698	0.36889603660575354	-1.9505845693105826	1.4369268645871476	0.5481644454578648	-1.846841368939518	1.122073029521408	0.6350748135719716	-1.692899879227205	0.9003795837434205	0.6462194471490905	-1.9888493250090606	1.4388813608582125	0.15981173279115657	-1.9810271451180015	1.1228932155471913	0.12744018901119675	-1.927477295272143	0.8624359691143768	0.13231022814928292
47	1.5666666666666669	-1.8879163684188864	0.8573899324819139	0.3952029178726219	-1.9085712093180027	0.8306432993763707	0.4905203728371917	-1.9748129354692505	0.46154296103083936	0.4601846534008951	-2.0165499044845405	0.07826346040940067	0.43525468556946045	-1.8438509266149927	-0.007968593806347006	0.4359009002080277	-1.8995344115281194	-0.0141612523603854	0.4827448716248787	-2.0833736553628315	-0.0052073240729061734	0.42752293651438444	-1.8630597457155524	0.8554451107698133	0.2887670552959486	-1.6642667175874004	0.5362840473329518	0.2865497233074069	-1.6925683132716574	0.15052029882472662	0.30600976918735734	-1.487996049654998	0.060549241811593074	0.2930808982156083	-1.533056742833688	0.05957974419056251	0.23930591912293125	-1.749899337343563	0.06491929467819504	0.31739889034317015	-1.8901242940447527	1.5496103830539052	0.36254989974856133	-1.845252343064672	1.794490640353638	0.3630605532347462	-1.7426239820388432	1.65702281795766	0.36928177405073626	-1.9180600611819014	1.432527097857115	0.549996351127747	-1.8101881201405408	1.1196806922486302	0.6359177342442689	-1.6406008260532114	0.9074570712094426	0.6420897592252993	-1.9558891185337135	1.4357145705193992	0.1604807569163992	-1.9500209787258749	1.1181271055283677	0.1282656088134245	-1.9026977943159933	0.8584666946147391	0.13234681666987608
